<svg xmlns="http://www.w3.org/2000/svg" viewBox="0 0 512 512"><path d="M257.15 360.41c-6.25 6.25-6.25 16.38 0 22.63 3.12 3.12 7.22 4.69 11.31 4.69s8.19-1.56 11.31-4.69L395.5 267.31c3-3 4.69-7.07 4.69-11.31s-1.69-8.31-4.69-11.31L279.77 128.96c-6.25-6.25-16.38-6.25-22.63 0s-6.25 16.38 0 22.63L361.55 256 257.14 360.41Z"/><path d="M121.69 97.22a16 16 0 0 0-9.88 14.78v288c0 6.47 3.9 12.31 9.88 14.78a15.99 15.99 0 0 0 17.44-3.47l144-144c6.25-6.25 6.25-16.38 0-22.63l-144-143.99a16.01 16.01 0 0 0-17.44-3.47m22.12 53.41L249.18 256 143.81 361.37V150.62Z"/></svg>